<svg version="1.1" id="Layer_1" xmlns="http://www.w3.org/2000/svg" xmlns:xlink="http://www.w3.org/1999/xlink" x="0px" y="0px"
	 width="100%" viewBox="0 0 769 223" enable-background="new 0 0 769 223" xml:space="preserve">
<path fill="#272220" opacity="1.000000" stroke="none" 
	d="
M702.841553,115.999939 
	C702.841553,92.559769 702.841553,69.619598 702.841553,46.422440 
	C713.449829,46.422440 723.514771,46.422440 733.838806,46.422440 
	C733.838806,98.252861 733.838806,149.819992 733.838806,201.972321 
	C724.856873,201.972321 715.915710,202.146301 706.995361,201.794128 
	C705.575867,201.738083 704.006287,199.491104 702.916260,197.964249 
	C682.316162,169.108124 661.778137,140.207748 641.225952,111.317390 
	C640.078552,109.704475 638.921570,108.098381 636.926025,105.311989 
	C636.926025,138.180237 636.926025,169.785080 636.926025,201.692932 
	C626.015381,201.692932 615.806885,201.692932 605.354492,201.692932 
	C605.354492,149.930115 605.354492,98.371689 605.354492,46.174652 
	C614.143250,46.174652 622.753662,45.999775 631.343262,46.343182 
	C632.810730,46.401848 634.494507,48.458794 635.564575,49.959038 
	C656.635254,79.500099 677.629456,109.095779 698.641724,138.678543 
	C699.689087,140.153091 700.759583,141.611298 702.841553,142.958542 
	C702.841553,134.139008 702.841553,125.319481 702.841553,115.999939 
z"/>
<path fill="#272220" opacity="1.000000" stroke="none" 
	d="
M482.807983,149.101746 
	C493.504944,165.143753 508.327240,173.023132 527.097534,171.532745 
	C546.072449,170.026077 559.539124,159.773834 567.392151,142.344635 
	C567.649414,141.773743 567.777527,141.144714 568.153381,139.943695 
	C553.203918,139.943695 538.659668,139.943695 523.800781,139.943695 
	C523.800781,129.178497 523.800781,118.938675 523.800781,108.429169 
	C549.970520,108.429169 575.890381,108.429169 601.802246,108.429169 
	C607.311462,148.913651 587.365234,186.164612 548.129700,199.068970 
	C508.187134,212.205856 465.296295,192.117157 450.147217,153.922440 
	C434.434448,114.306480 451.136322,71.071724 489.952209,52.454060 
	C526.396851,34.973724 568.119446,49.469517 586.987183,77.686920 
	C578.823853,83.648521 570.651245,89.616875 562.092163,95.867462 
	C552.078308,83.360443 539.226257,76.378647 523.293457,76.332367 
	C511.798553,76.298981 501.384644,80.109680 492.552338,87.667191 
	C474.628265,103.004181 470.593994,128.003296 482.807983,149.101746 
z"/>
<path fill="#282220" opacity="1.000000" stroke="none" 
	d="
M228.108856,191.908615 
	C218.617813,178.198715 209.297394,164.806442 200.048172,151.365158 
	C199.142563,150.049103 198.121964,148.441956 198.094086,146.952362 
	C197.917023,137.489822 198.004074,128.022324 198.004074,118.379105 
	C203.098648,118.022774 207.919037,118.065208 212.602325,117.284866 
	C225.212845,115.183647 231.582779,107.261063 230.777451,95.244911 
	C229.975296,83.276093 223.079544,76.660156 210.103668,76.115280 
	C201.301315,75.745651 192.470871,76.044693 183.103363,76.044693 
	C183.103363,117.927811 183.103363,159.638184 183.103363,201.674927 
	C172.338760,201.674927 162.120895,201.674927 151.627258,201.674927 
	C151.627258,149.964478 151.627258,98.386757 151.627258,46.935539 
	C152.133713,46.629471 152.405243,46.321144 152.674271,46.323326 
	C174.487488,46.500263 196.349899,45.844616 218.102081,47.099178 
	C251.736420,49.039040 265.049713,76.079399 262.431946,103.138420 
	C260.565186,122.434547 250.748489,136.027908 231.824997,143.247833 
	C245.511169,162.773148 258.989685,182.002243 273.004303,201.996078 
	C260.374023,201.996078 248.623352,202.080963 236.877899,201.872299 
	C235.624039,201.850021 234.173325,200.300461 233.212219,199.131836 
	C231.419952,196.952591 229.920624,194.532455 228.108856,191.908615 
z"/>
<path fill="#272220" opacity="1.000000" stroke="none" 
	d="
M105.528625,199.651001 
	C75.514397,208.947235 44.865955,199.467102 24.046030,174.390793 
	C30.741890,166.349091 37.504753,158.226913 44.246399,150.130219 
	C48.135662,154.336182 51.508949,158.743271 55.624851,162.288086 
	C66.502777,171.656738 79.155281,175.130112 93.292274,171.886948 
	C102.832863,169.698242 107.846252,162.538666 105.089066,154.495438 
	C104.056404,151.482986 101.503593,148.199982 98.743668,146.726532 
	C91.739410,142.987183 84.173691,140.315964 76.930099,137.004227 
	C68.330223,133.072418 59.245071,129.817886 51.396099,124.697342 
	C24.003527,106.826859 25.214367,68.933823 53.453373,52.389225 
	C71.012779,42.101566 89.408630,43.017349 107.910431,49.532650 
	C118.212723,53.160542 129.318024,60.410435 136.184402,67.520432 
	C130.066238,75.495293 123.911125,83.518341 117.436279,91.958145 
	C114.494698,89.691284 111.710472,87.440041 108.818520,85.336937 
	C100.180763,79.055313 90.948631,73.993469 79.862541,75.042244 
	C75.914032,75.415787 71.598824,76.838036 68.392014,79.109863 
	C61.547195,83.959015 61.877373,93.801903 69.164185,97.830154 
	C76.979469,102.150536 85.432777,105.317017 93.608704,108.984711 
	C101.034943,112.316093 108.650291,115.283875 115.857094,119.036446 
	C146.696213,135.094330 143.977524,178.397415 116.656532,194.316284 
	C113.226799,196.314667 109.491318,197.788315 105.528625,199.651001 
z"/>
<path fill="#252020" opacity="1.000000" stroke="none" 
	d="
M399.685242,97.999878 
	C399.685364,85.016876 399.759186,72.533134 399.630859,60.051464 
	C399.600983,57.145126 400.298798,55.638260 403.374420,54.774593 
	C412.447784,52.226692 421.405731,49.267803 430.777588,46.355145 
	C430.777588,98.509399 430.777588,150.015060 430.777588,201.759735 
	C420.484222,201.759735 410.411957,201.759735 399.685303,201.759735 
	C399.685303,167.256195 399.685303,132.878036 399.685242,97.999878 
z"/>
<path fill="#272220" opacity="1.000000" stroke="none" 
	d="
M354.000061,46.157829 
	C363.120361,46.157833 371.740662,46.157833 380.646149,46.157833 
	C380.646149,56.218761 380.646149,65.792000 380.646149,75.685448 
	C347.225800,75.685448 313.854095,75.685448 280.211365,75.685448 
	C280.211365,66.019859 280.211365,56.435482 280.211365,46.157822 
	C304.665131,46.157822 329.082581,46.157822 354.000061,46.157829 
z"/>
<path fill="#29231F" opacity="1.000000" stroke="none" 
	d="
M380.272827,109.910187 
	C380.654388,119.598564 380.654388,129.041580 380.654388,138.830719 
	C347.249908,138.830719 313.910767,138.830719 280.253540,138.830719 
	C280.253540,129.276993 280.253540,119.705605 280.253540,110.044846 
	C280.673645,109.887794 281.125092,109.571167 281.576447,109.571373 
	C314.348053,109.586433 347.119629,109.626648 380.272827,109.910187 
z"/>
<path fill="#252020" opacity="1.000000" stroke="none" 
	d="
M285.125092,173.001129 
	C317.217346,173.001099 348.821259,173.001099 380.678345,173.001099 
	C380.678345,182.715958 380.678345,191.978043 380.678345,201.620605 
	C347.344055,201.620605 313.974213,201.620605 280.274414,201.620605 
	C280.274414,192.332260 280.274414,182.948151 280.274414,173.237808 
	C281.743713,173.158096 283.190216,173.079620 285.125092,173.001129 
z"/>
</svg>